<svg xmlns="http://www.w3.org/2000/svg" xmlns:xlink="http://www.w3.org/1999/xlink" id="圖層_1" width="521.078" height="100" x="0" y="0" version="1.1" viewBox="0 0 521.078 100" style="enable-background:new 0 0 521.0783691 100" xml:space="preserve"><style type="text/css">.st0{fill:#03cf5d}</style><g><path d="M150,0l-39.2157059,100h33.3333054l4.7360992-13.2352982h37.5867004L191.1764984,100h33.3332977L185.2940979,0 H150z M156.4685974,62.7450981L167.64711,31.5069008l11.1783905,31.2381973H156.4685974z" class="st0"/><polygon points="363.235 62.01 408.823 62.01 408.823 37.99 363.235 37.99 363.235 24.51 409.314 24.51 409.314 0 331.372 0 331.372 100 410.294 100 410.294 75.49 363.235 75.49" class="st0"/><polygon points="264.216 65.753 240.686 0 207.353 0 246.569 100 281.863 100 321.078 0 287.745 0" class="st0"/><polygon points="68.137 53.521 30.882 0 0 0 0 100 32.353 100 32.353 46.479 69.608 100 100.49 100 100.49 0 68.137 0" class="st0"/><path d="M495.7964783,65.694397l3.0326233-1.2691956 c11.6220093-4.8646011,17.5325928-15.3901024,17.5325928-28.7482033c0-12.6320972-4.6071167-21.9770985-13.6939087-27.7756977 C494.2207947,2.5106001,483.2662964,0,468.1940002,0h-42.213623v100h31.3724976V72.0588989h11.2745056L487.7451172,100h33.333252 L495.7964783,65.694397z M474.0195923,46.5686989h-17.1568909V25.4902h17.1568909 c5.8205872,0,10.5391846,4.7185993,10.5391846,10.5391998C484.5587769,41.8501015,479.8401794,46.5686989,474.0195923,46.5686989z" class="st0"/></g></svg>